{"title":"Lewis S05","uid":10411740,"size":2667945972,"categoryP":"video","categoryS":"tv_shows","magnet":"?xt=urn:btih:605622bb6c8b9f3b5baaadb28f2754e443e9e121&amp;dn=Lewis+S05&amp;tr=udp%3A%2F%2Ftracker.openbittorrent.com%3A80&amp;tr=udp%3A%2F%2Fopen.demonii.com%3A1337&amp;tr=udp%3A%2F%2Ftracker.coppersurfer.tk%3A6969&amp;tr=udp%3A%2F%2Fexodus.desync.com%3A6969","seeders":7,"leechers":2,"uploader":"RedBaron58","files":4,"time":1403547535,"description":"Lewis Season 5 Crime Drama DVDrip x264 mp4\n\naka: Inspector Lewis\n &lt;a href=&quot;\nhttp://www.imdb.com/title/tt0874608/&quot; rel=&quot;nofollow&quot; target=&quot;_NEW&quot;&gt;\nhttp://www.imdb.com/title/tt0874608/&lt;/a&gt;\n\n\nAbout the Series:\n\nLewis is as a spin-off from Inspector Morse. Like that series, it was set primarily in Oxford. Kevin Whately\nreprised his character Robbie Lewis, who had been Morse's sergeant in the original series. \nLewis had now been promoted to detective inspector and was assisted by DS James Hathaway, portrayed \nby Laurence Fox.\n\n\nThank you for your kind comments and thumbs ups on my other torrents, your feedback is welcome.\n\n\n\nConsists of 4 x 90 min Episodes.\n\n\nI hope you enjoy.\n\n\nTechnical: (All episodes encoded to the same settings)\n\nGeneral\nComplete name                            : G:Lewis S05Lewis S05E01 Old Unhappy Far Off Things x264 RB58.mp4\nFormat                                   : MPEG-4\nFormat profile                           : Base Media / Version 2\nCodec ID                                 : mp42\nFile size                                : 637 MiB\nDuration                                 : 1h 28mn\nOverall bit rate mode                    : Variable\nOverall bit rate                         : 1 000 Kbps\nEncoded date                             : UTC 2014-06-22 18:56:43\nTagged date                              : UTC 2014-06-22 19:18:23\nWriting application                      : HandBrake 0.9.8 2012071700\n\nVideo\nID                                       : 1\nFormat                                   : AVC\nFormat/Info                              : Advanced Video Codec\nFormat profile                           : &lt;a class=&quot;__cf_email__&quot; href=&quot;/cdn-cgi/l/email-protection&quot; data-cfemail=&quot;387559515678740b1608&quot;&gt;[email&amp;#160;protected]&lt;/a&gt;&lt;script cf-hash='f9e31' type=&quot;text/javascript&quot;&gt;\n/* &lt;![CDATA[ */!function(){try{var t=&quot;currentScript&quot;in document?document.currentScript:function(){for(var t=document.getElementsByTagName(&quot;script&quot;),e=t.length;e--;)if(t[e].getAttribute(&quot;cf-hash&quot;))return t[e]}();if(t&amp;&amp;t.previousSibling){var e,r,n,i,c=t.previousSibling,a=c.getAttribute(&quot;data-cfemail&quot;);if(a){for(e=&quot;&quot;,r=parseInt(a.substr(0,2),16),n=2;a.length-n;n+=2)i=parseInt(a.substr(n,2),16)^r,e+=String.fromCharCode(i);e=document.createTextNode(e),c.parentNode.replaceChild(e,c)}}}catch(u){}}();/* ]]&gt; */&lt;/script&gt;\nFormat settings, CABAC                   : Yes\nFormat settings, ReFrames                : 4 frames\nCodec ID                                 : avc1\nCodec ID/Info                            : Advanced Video Coding\nDuration                                 : 1h 28mn\nBit rate mode                            : Variable\nBit rate                                 : 900 Kbps\nWidth                                    : 716 pixels\nHeight                                   : 568 pixels\nDisplay aspect ratio                     : 16:9\nFrame rate mode                          : Constant\nFrame rate                               : 25.000 fps\nColor space                              : YUV\nChroma subsampling                       : 4:2:0\nBit depth                                : 8 bits\nScan type                                : Progressive\nBits/(Pixel*Frame)                       : 0.089\nStream size                              : 573 MiB (90%)\nWriting library                          : x264 core 120\nEncoding settings                        : cabac=1 / ref=1 / deblock=1:0:0\nEncoded date                             : UTC 2014-06-22 18:56:43\nTagged date                              : UTC 2014-06-22 19:18:23\nColor primaries                          : BT.601 NTSC\nTransfer characteristics                 : BT.709\nMatrix coefficients                      : BT.601\n\nAudio\nID                                       : 2\nFormat                                   : AAC\nFormat/Info                              : Advanced Audio Codec\nFormat profile                           : LC\nCodec ID                                 : 40\nDuration                                 : 1h 28mn\nBit rate mode                            : Variable\nBit rate                                 : 96.0 Kbps\nMaximum bit rate                         : 131 Kbps\nChannel(s)                               : 2 channels\nChannel positions                        : Front: L R\nSampling rate                            : 48.0 KHz\nCompression mode                         : Lossy\nDelay relative to video                  : 80ms\nStream size                              : 61.1 MiB (10%)\nLanguage                                 : English\nEncoded date                             : UTC 2014-06-22 18:56:43\nTagged date                              : UTC 2014-06-22 19:18:22","torrent":{"xt":"urn:btih:605622bb6c8b9f3b5baaadb28f2754e443e9e121","amp;dn":"Lewis+S05","amp;tr":["udp%3A%2F%2Ftracker.openbittorrent.com%3A80","udp%3A%2F%2Fopen.demonii.com%3A1337","udp%3A%2F%2Ftracker.coppersurfer.tk%3A6969","udp%3A%2F%2Fexodus.desync.com%3A6969"],"infoHash":"605622bb6c8b9f3b5baaadb28f2754e443e9e121","infoHashBuffer":{"type":"Buffer","data":[96,86,34,187,108,139,159,59,91,170,173,178,143,39,84,228,67,233,225,33]},"announce":[],"urlList":[]}}